<?xml version="1.0" encoding="utf-8"?>
<!-- Generator: Adobe Illustrator 19.1.0, SVG Export Plug-In . SVG Version: 6.00 Build 0)  -->
<svg version="1.1" id="Layer_1" xmlns="http://www.w3.org/2000/svg" xmlns:xlink="http://www.w3.org/1999/xlink" x="0px" y="0px"
	 viewBox="0 0 456.5 65.7" style="enable-background:new 0 0 456.5 65.7;" xml:space="preserve">
<style type="text/css">
	.st0{fill:none;}
	.st1{fill:#346734;}
</style>
<g>
	<g>
		<rect x="4" y="0.4" class="st0" width="602.4" height="179.7"/>
		<path class="st1" d="M41.3,62.5l-1.2-37H40c-0.6,4.3-1,8.6-1.6,12.9l-3.6,24.1H24.4l-4.4-37h-0.1c-0.1,4.4,0,8.7-0.2,13l-1.1,23.9
			H4.9l5.5-58.8h15.8L29.9,35H30c0.4-3.7,0.7-7.3,1.2-10.9l3.1-20.4H50l4.6,58.8H41.3z"/>
		<path class="st1" d="M72.9,63.1c-1.1,0.1-2.2,0.3-3.3,0.3c-9.5,0-14.8-10.6-14.8-21.6c0-11.3,6.1-21.3,15.5-21.3
			c0.9,0,1.7,0.1,2.6,0.2V34c-3.6,0.2-5.5,3.1-5.5,7.5c0,3.3,1.6,7.6,4.7,7.6h0.8V63.1z"/>
		<path class="st1" d="M110.6,62.5l-1.2-37h-0.1c-0.6,4.3-1,8.6-1.6,12.9l-3.6,24.1H93.7l-4.4-37h-0.1c-0.1,4.4,0,8.7-0.2,13
			l-1.1,23.9H74.2l5.5-58.8h15.8L99.2,35h0.1c0.4-3.7,0.7-7.3,1.2-10.9l3.1-20.4h15.7l4.6,58.8H110.6z"/>
	</g>
	<g>
		<rect x="277.4" class="st0" width="29" height="179.7"/>
		<path class="st1" d="M280,44.1V31.3h17v12.8H280z"/>
	</g>
	<g>
		<path class="st1" d="M149.4,62.6l-0.9-7.6h-8.5l-1.1,7.6h-13.1L137,3.8h15.5l10,58.8H149.4z M147,42.6l-1.4-13.7
			c-0.4-3.7-0.6-7.4-0.9-11.1h-0.1c-0.4,3.7-0.7,7.4-1.2,11.1l-1.7,13.7H147z"/>
		<path class="st1" d="M163.7,42.8c1.7,3.3,4.8,6.6,8,6.6c1.7,0,3.7-1.3,3.7-3.9c0-1.4-0.4-2.4-1-3.3c-0.6-0.9-1.3-1.6-2.1-2.3
			c-2.5-2.4-4.7-4.7-6.3-7.5c-1.6-2.7-2.6-6-2.6-10.3c0-6.9,3.5-19.3,14.4-19.3c3.1,0,6.4,1.2,9,3v17.9c-1.5-3-4.6-6.3-7.5-6.3
			c-1.5,0-3.3,1.3-3.3,3.6c0,1.2,0.6,2.3,1.2,3.3c0.7,0.9,1.6,1.7,2.3,2.4c2.7,2.3,4.8,4.5,6.2,7.2c1.5,2.7,2.3,5.8,2.3,10.2
			c0,10.9-6.1,19.7-15,19.7c-3.2,0-6.6-0.9-9.5-2.4V42.8z"/>
		<path class="st1" d="M197.1,62.6V18.2h-7V3.8h27v14.4h-7.3v44.5H197.1z"/>
		<path class="st1" d="M220.4,3.8H244v13.9h-10.9v8.2h9.8v13.9h-9.8v9H244v13.9h-23.6V3.8z"/>
	</g>
	<g>
		<path class="st1" d="M267.7,62.6l-7.1-24.5l-0.1,0.2c0.1,2.9,0.2,5.8,0.2,8.7v15.7h-12.7V3.8h12.3c11,0,19,4.1,19,19.6
			c0,6.5-2.2,12.2-7.3,14.7l9.5,24.5H267.7z M261.5,31c3.4,0,5.2-3.7,5.2-7.5c0-5.1-2.5-7.3-6-7.1V31L261.5,31z"/>
	</g>
	<g>
		<path class="st1" d="M325.1,21.1c-1.8-2.2-3.3-3.4-5.9-3.4c-6.6,0-8.2,9.1-8.2,15.6c0,6.9,1.6,15.6,8,15.6c2.9,0,4.7-1.4,6.7-3.7
			l-0.7,16.5c-2.6,1.4-4.9,2.1-7.7,2.1c-10.4,0-19.3-9.9-19.3-30c0-26.4,14.5-30.8,20.7-30.8c2.2,0,4.4,0.4,6.5,1.4V21.1z"/>
		<path class="st1" d="M350.9,62.6l-0.9-7.6h-8.5l-1.1,7.6h-13.1l11.3-58.8h15.5l10,58.8H350.9z M348.5,42.6l-1.4-13.7
			c-0.4-3.7-0.6-7.4-0.9-11.1h-0.1c-0.4,3.7-0.7,7.4-1.2,11.1l-1.7,13.7H348.5z"/>
		<path class="st1" d="M386,62.6l-7.1-24.5l-0.1,0.2c0.1,2.9,0.2,5.8,0.2,8.7v15.7h-12.7V3.8h12.3c11,0,19,4.1,19,19.6
			c0,6.5-2.2,12.2-7.3,14.7l9.5,24.5H386z M379.8,31c3.4,0,5.2-3.7,5.2-7.5c0-5.1-2.5-7.3-6-7.1V31L379.8,31z"/>
		<path class="st1" d="M421.6,62.6l-7.1-24.5l-0.1,0.2c0.1,2.9,0.2,5.8,0.2,8.7v15.7h-12.7V3.8h12.3c11,0,19,4.1,19,19.6
			c0,6.5-2.2,12.2-7.3,14.7l9.5,24.5H421.6z M415.4,31c3.4,0,5.2-3.7,5.2-7.5c0-5.1-2.5-7.3-6-7.1V31L415.4,31z"/>
		<path class="st1" d="M454.2,56.6c0,3.4-2.5,6.2-6.3,6.2c-4.4,0-6.3-3.3-6.3-6.2c0-2.9,1.8-6.2,6.3-6.2
			C452,50.4,454.2,53.4,454.2,56.6z M443.2,56.6c0,2.8,1.9,4.7,4.7,4.7c2.8,0,4.7-2,4.7-4.8c0-2.8-1.9-4.7-4.7-4.7
			C445.1,51.9,443.2,53.8,443.2,56.6z M446.6,60H445v-6.8h3.8c1.4,0,2.3,0.6,2.3,2.1c0,1.3-0.7,1.8-1.8,1.8l1.6,2.8h-1.8l-1.4-2.7
			h-1.1V60z M446.6,54.5v1.6h1.9c0.7,0,1-0.2,1-0.8c0-0.8-0.5-0.9-1.4-0.9H446.6z"/>
	</g>
	<g>
		<rect x="439" y="65.7" class="st0" width="9.7" height="0"/>
	</g>
</g>
<g>
</g>
<g>
</g>
<g>
</g>
<g>
</g>
<g>
</g>
<g>
</g>
</svg>
